<svg width="30" height="30" viewBox="0 0 30 30" fill="none" xmlns="http://www.w3.org/2000/svg">
<path d="M14.5277 0.943783C11.8658 0.943783 9.31298 2.00121 7.43075 3.88344C5.54852 5.76567 4.49109 8.31853 4.49109 10.9804C4.49109 16.5235 14.5277 28.5114 14.5277 28.5114C14.5277 28.5114 24.5643 16.5235 24.5643 10.9804C24.5643 8.31853 23.5069 5.76567 21.6247 3.88344C19.7424 2.00121 17.1896 0.943783 14.5277 0.943783Z" fill="#072D8F"/>
<path d="M14.5277 28.7141C14.498 28.7141 14.4687 28.7076 14.4418 28.6951C14.4149 28.6825 14.391 28.6642 14.372 28.6415C13.9605 28.1497 4.28833 16.5332 4.28833 10.9804C4.28833 9.63576 4.55318 8.30428 5.06775 7.06199C5.58233 5.8197 6.33655 4.69092 7.28736 3.74011C8.23817 2.7893 9.36694 2.03508 10.6092 1.5205C11.8515 1.00593 13.183 0.741081 14.5277 0.741081C15.8723 0.741081 17.2038 1.00593 18.4461 1.5205C19.6884 2.03508 20.8171 2.7893 21.768 3.74011C22.7188 4.69092 23.473 5.8197 23.9876 7.06199C24.5021 8.30428 24.767 9.63576 24.767 10.9804C24.767 16.5345 15.0948 28.1497 14.6833 28.6415C14.6643 28.6642 14.6405 28.6825 14.6136 28.6951C14.5867 28.7076 14.5573 28.7141 14.5277 28.7141ZM14.5277 1.14649C11.9204 1.14938 9.42081 2.18639 7.57722 4.02998C5.73363 5.87357 4.69663 8.37318 4.69374 10.9804C4.69374 16.0123 13.2591 26.6465 14.5277 28.1927C15.7962 26.6465 24.3616 16.0135 24.3616 10.9804C24.3587 8.37318 23.3217 5.87357 21.4781 4.02998C19.6345 2.18639 17.1349 1.14938 14.5277 1.14649Z" fill="#323C6B"/>
<path d="M19.8709 15.1695C19.2362 15.9802 18.4252 16.6359 17.4994 17.0869C16.5737 17.5378 15.5574 17.7722 14.5277 17.7722C13.498 17.7722 12.4817 17.5378 11.556 17.0869C10.6302 16.6359 9.81924 15.9802 9.18445 15.1695C9.43297 14.398 9.90596 13.7182 10.5429 13.217C11.1799 12.7158 11.9519 12.416 12.7601 12.3559C13.2457 12.7919 13.8752 13.033 14.5277 13.033C15.1802 13.033 15.8097 12.7919 16.2953 12.3559C17.1035 12.416 17.8755 12.7158 18.5125 13.217C19.1494 13.7182 19.6224 14.398 19.8709 15.1695Z" fill="white"/>
<path d="M14.5277 17.9749C13.4667 17.9782 12.419 17.7384 11.4651 17.2738C10.5113 16.8092 9.67655 16.1322 9.0251 15.2947C9.00446 15.2684 8.99066 15.2374 8.98493 15.2044C8.9792 15.1714 8.98172 15.1376 8.99226 15.1058C9.25529 14.2992 9.75118 13.5886 10.4174 13.0634C11.0837 12.5382 11.8905 12.2219 12.7362 12.1545C12.7649 12.1511 12.794 12.1539 12.8216 12.1627C12.8491 12.1715 12.8745 12.1861 12.8959 12.2055C13.3442 12.6078 13.9253 12.8303 14.5277 12.8303C15.13 12.8303 15.7111 12.6078 16.1594 12.2055C16.1809 12.1861 16.2062 12.1715 16.2338 12.1627C16.2613 12.1539 16.2904 12.1511 16.3192 12.1545C17.1648 12.2219 17.9716 12.5382 18.6379 13.0634C19.3042 13.5886 19.8 14.2992 20.0631 15.1058C20.0736 15.1376 20.0761 15.1714 20.0704 15.2044C20.0647 15.2374 20.0509 15.2684 20.0302 15.2947C19.3788 16.1322 18.5441 16.8092 17.5902 17.2738C16.6363 17.7384 15.5887 17.9782 14.5277 17.9749ZM9.41267 15.1305C10.0298 15.8923 10.8093 16.5066 11.6943 16.9286C12.5792 17.3506 13.5473 17.5696 14.5277 17.5696C15.5081 17.5696 16.4761 17.3506 17.361 16.9286C18.246 16.5066 19.0255 15.8923 19.6427 15.1305C19.3993 14.4332 18.9601 13.8207 18.3778 13.3663C17.7954 12.9119 17.0945 12.6349 16.3589 12.5684C15.8455 12.9994 15.1966 13.2357 14.5262 13.2357C13.8559 13.2357 13.207 12.9994 12.6936 12.5684C11.9585 12.6354 11.2582 12.9127 10.6764 13.367C10.0946 13.8214 9.65588 14.4336 9.41267 15.1305Z" fill="#323C6B"/>
<path d="M21.3243 10.9816C21.3264 12.5012 20.8149 13.977 19.873 15.1695C19.6245 14.398 19.1515 13.7182 18.5145 13.217C17.8775 12.7158 17.1056 12.416 16.2973 12.3559C15.8118 12.7919 15.1823 13.033 14.5297 13.033C13.8772 13.033 13.2477 12.7919 12.7622 12.3559C11.9539 12.416 11.1819 12.7158 10.545 13.217C9.90799 13.7182 9.435 14.398 9.18648 15.1695C8.51871 14.3175 8.06422 13.3183 7.8609 12.2552C7.65757 11.192 7.71129 10.0956 8.01757 9.05742C8.32386 8.01922 8.87384 7.06925 9.6217 6.28669C10.3695 5.50412 11.2936 4.91163 12.3169 4.55859C13.3401 4.20554 14.4329 4.10217 15.5042 4.25708C16.5755 4.41199 17.5943 4.82071 18.4756 5.44916C19.3569 6.07761 20.0753 6.9076 20.5708 7.86996C21.0663 8.83232 21.3247 9.89917 21.3243 10.9816Z" fill="#072D8F"/>
<path d="M19.871 15.3722C19.8593 15.3723 19.8476 15.3713 19.8361 15.3693C19.8 15.3631 19.7663 15.3471 19.7385 15.3232C19.7107 15.2993 19.69 15.2683 19.6784 15.2335C19.4492 14.5118 19.0121 13.8739 18.4218 13.3996C17.8315 12.9253 17.1143 12.6359 16.3602 12.5676C15.8468 12.9986 15.1979 13.2349 14.5275 13.2349C13.8572 13.2349 13.2083 12.9986 12.6949 12.5676C11.9409 12.6359 11.2239 12.9253 10.6337 13.3994C10.0435 13.8735 9.60636 14.5112 9.37706 15.2327C9.36552 15.2674 9.3448 15.2984 9.3171 15.3223C9.2894 15.3462 9.25574 15.3621 9.21971 15.3684C9.18367 15.3748 9.1466 15.3712 9.11242 15.3582C9.07825 15.3451 9.04823 15.3231 9.02557 15.2943C8.05228 14.0678 7.52503 12.5466 7.53044 10.9808C7.53044 9.12502 8.26765 7.34523 9.5799 6.03298C10.8921 4.72073 12.6719 3.98351 14.5277 3.98351C16.3835 3.98351 18.1633 4.72073 19.4756 6.03298C20.7878 7.34523 21.525 9.12502 21.525 10.9808C21.5304 12.5466 21.0032 14.0678 20.0299 15.2943C20.011 15.3185 19.9869 15.338 19.9594 15.3515C19.9319 15.365 19.9016 15.3721 19.871 15.3722ZM16.2953 12.1533C16.3033 12.1529 16.3113 12.1529 16.3192 12.1533C17.1004 12.2169 17.8494 12.4924 18.4856 12.9501C19.1218 13.4078 19.6211 14.0303 19.9298 14.7507C20.7087 13.6482 21.1246 12.3303 21.1196 10.9804C21.1196 9.23213 20.4251 7.55546 19.1889 6.31924C17.9527 5.08302 16.276 4.38851 14.5277 4.38851C12.7795 4.38851 11.1028 5.08302 9.86656 6.31924C8.63034 7.55546 7.93584 9.23213 7.93584 10.9804C7.93087 12.3303 8.34678 13.6482 9.12571 14.7507C9.43439 14.0303 9.93371 13.4078 10.5699 12.9501C11.2061 12.4924 11.9551 12.2169 12.7363 12.1533C12.765 12.1499 12.7941 12.1527 12.8216 12.1615C12.8492 12.1703 12.8745 12.1849 12.896 12.2043C13.3443 12.6066 13.9254 12.8291 14.5277 12.8291C15.1301 12.8291 15.7112 12.6066 16.1595 12.2043C16.1974 12.1707 16.2466 12.1524 16.2973 12.1533H16.2953Z" fill="#323C6B"/>
<path d="M14.5277 11.8265C16.0052 11.8265 17.203 10.6287 17.203 9.15121C17.203 7.6737 16.0052 6.47594 14.5277 6.47594C13.0502 6.47594 11.8524 7.6737 11.8524 9.15121C11.8524 10.6287 13.0502 11.8265 14.5277 11.8265Z" fill="white"/>
<path d="M14.5277 12.0292C13.9584 12.0292 13.4019 11.8604 12.9285 11.5441C12.4552 11.2278 12.0863 10.7783 11.8684 10.2523C11.6505 9.72637 11.5935 9.14762 11.7046 8.58927C11.8157 8.03092 12.0898 7.51804 12.4924 7.11549C12.8949 6.71294 13.4078 6.4388 13.9661 6.32774C14.5245 6.21668 15.1032 6.27368 15.6292 6.49154C16.1551 6.70939 16.6047 7.07832 16.921 7.55167C17.2372 8.02502 17.4061 8.58152 17.4061 9.15081C17.4052 9.91394 17.1017 10.6456 16.562 11.1852C16.0224 11.7248 15.2908 12.0283 14.5277 12.0292ZM14.5277 6.67784C14.0386 6.67784 13.5604 6.82288 13.1538 7.09461C12.7471 7.36634 12.4301 7.75257 12.2429 8.20445C12.0558 8.65632 12.0068 9.15356 12.1022 9.63327C12.1976 10.113 12.4332 10.5536 12.779 10.8995C13.1249 11.2453 13.5655 11.4809 14.0452 11.5763C14.5249 11.6717 15.0222 11.6227 15.474 11.4355C15.9259 11.2484 16.3121 10.9314 16.5839 10.5247C16.8556 10.118 17.0006 9.63992 17.0006 9.15081C16.9998 8.49532 16.7389 7.86693 16.2753 7.40353C15.8117 6.94014 15.1832 6.67959 14.5277 6.67905V6.67784Z" fill="#323C6B"/>
<path d="M6.64858 19.8458C6.61359 19.8459 6.57918 19.8369 6.5487 19.8197C6.51822 19.8025 6.49272 19.7777 6.47466 19.7477C5.78912 18.6097 5.19844 17.5301 4.71925 16.5389C4.70765 16.515 4.70088 16.489 4.69932 16.4624C4.69777 16.4358 4.70146 16.4092 4.71019 16.384C4.71893 16.3589 4.73253 16.3357 4.75022 16.3158C4.76791 16.2959 4.78935 16.2797 4.81331 16.2681C4.83727 16.2565 4.86327 16.2497 4.88985 16.2482C4.91643 16.2466 4.94305 16.2503 4.96819 16.259C4.99334 16.2678 5.01652 16.2814 5.03641 16.2991C5.0563 16.3168 5.07251 16.3382 5.08412 16.3622C5.55804 17.3424 6.14263 18.4111 6.82209 19.5385C6.84977 19.5846 6.85802 19.6398 6.84502 19.6919C6.83201 19.7441 6.79883 19.7889 6.75277 19.8166C6.72138 19.8358 6.68533 19.8459 6.64858 19.8458Z" fill="#323C6B"/>
<path d="M4.51213 15.8173C4.47278 15.8172 4.4343 15.8056 4.40141 15.784C4.36851 15.7625 4.34261 15.7317 4.32686 15.6957C4.25065 15.5238 4.18011 15.3539 4.10957 15.1845C4.08898 15.1348 4.08896 15.079 4.10953 15.0293C4.1301 14.9796 4.16956 14.9401 4.21923 14.9195C4.2689 14.8989 4.32472 14.8989 4.37441 14.9195C4.42409 14.9401 4.46357 14.9795 4.48416 15.0292C4.55267 15.1958 4.62281 15.3628 4.6974 15.5315C4.71085 15.5623 4.71642 15.596 4.71362 15.6295C4.71082 15.663 4.69973 15.6952 4.68136 15.7234C4.66298 15.7515 4.63789 15.7747 4.60835 15.7907C4.57881 15.8067 4.54575 15.8152 4.51213 15.8153V15.8173Z" fill="#323C6B"/>
<path d="M25.7453 10.3443C25.694 10.3445 25.6446 10.3252 25.607 10.2904C25.5694 10.2555 25.5464 10.2077 25.5426 10.1566C25.4372 8.70818 25.0445 7.2952 24.3876 6C24.3633 5.95199 24.3591 5.8963 24.3758 5.84517C24.3926 5.79404 24.429 5.75166 24.477 5.72736C24.525 5.70307 24.5807 5.69883 24.6318 5.7156C24.6829 5.73236 24.7253 5.76875 24.7496 5.81676C25.4308 7.15917 25.8382 8.62366 25.948 10.125C25.9519 10.1786 25.9344 10.2315 25.8993 10.2722C25.8641 10.3129 25.8143 10.3379 25.7607 10.3419L25.7453 10.3443Z" fill="#323C6B"/>
<path d="M25.6812 12.2951C25.6701 12.2952 25.6589 12.2943 25.648 12.2923C25.595 12.2835 25.5476 12.2541 25.5163 12.2105C25.485 12.1669 25.4723 12.1126 25.4809 12.0596C25.5097 11.8836 25.5332 11.7105 25.549 11.5415C25.554 11.4877 25.5802 11.4382 25.6217 11.4037C25.6633 11.3692 25.7168 11.3526 25.7706 11.3576C25.8244 11.3626 25.8739 11.3888 25.9084 11.4303C25.9429 11.4719 25.9594 11.5254 25.9544 11.5792C25.9378 11.7572 25.9139 11.94 25.8819 12.1253C25.8741 12.1728 25.8496 12.216 25.8128 12.2472C25.776 12.2783 25.7294 12.2953 25.6812 12.2951Z" fill="#323C6B"/>
<path d="M7.0046 7.49311C6.96382 7.49301 6.92361 7.48358 6.88703 7.46554C6.82455 7.43416 6.77708 7.37926 6.75503 7.3129C6.73299 7.24655 6.73818 7.17415 6.76947 7.11162C7.28553 6.08122 8.00113 5.1636 8.87474 4.41203C8.90078 4.38846 8.93128 4.37033 8.96444 4.35872C8.99759 4.34711 9.03273 4.34224 9.06779 4.34441C9.10286 4.34657 9.13713 4.35573 9.1686 4.37133C9.20008 4.38694 9.22811 4.40868 9.25106 4.43528C9.27401 4.46187 9.29141 4.49279 9.30223 4.52621C9.31306 4.55963 9.31709 4.59488 9.3141 4.62988C9.31111 4.66488 9.30114 4.69893 9.2848 4.73002C9.26845 4.76112 9.24606 4.78863 9.21893 4.81095C8.39806 5.51736 7.7256 6.3797 7.24055 7.34797C7.21857 7.39168 7.18486 7.42841 7.14318 7.45405C7.10151 7.47968 7.05353 7.4932 7.0046 7.49311Z" fill="#072D8F"/>
<path d="M10.2621 4.00216C10.2043 4.00219 10.1481 3.98324 10.1022 3.94824C10.0563 3.91324 10.0231 3.86411 10.0078 3.80843C9.99253 3.75274 9.99595 3.69357 10.0176 3.64002C10.0392 3.58646 10.0778 3.5415 10.1275 3.51203C10.2641 3.43095 10.4039 3.35554 10.545 3.28176C10.5758 3.26406 10.6099 3.25277 10.6452 3.24857C10.6804 3.24437 10.7162 3.24734 10.7503 3.25731C10.7844 3.26728 10.8161 3.28404 10.8436 3.30659C10.871 3.32914 10.8936 3.357 10.91 3.3885C10.9264 3.42001 10.9363 3.45451 10.9391 3.48993C10.9418 3.52534 10.9373 3.56095 10.926 3.5946C10.9146 3.62826 10.8965 3.65926 10.8729 3.68576C10.8492 3.71225 10.8204 3.73369 10.7883 3.74878C10.6553 3.81811 10.5235 3.88905 10.395 3.96527C10.3547 3.9891 10.3089 4.00183 10.2621 4.00216Z" fill="#072D8F"/>
</svg>
