<svg width="100" height="100" viewBox="0 0 100 100" fill="none" xmlns="http://www.w3.org/2000/svg">
<path d="M18.5047 57.8484C16.7826 58.8699 15.625 60.7473 15.625 62.8906C15.625 66.1215 18.2535 68.75 21.4844 68.75C24.0305 68.75 26.2016 67.117 27.0078 64.8438H42.1875C45.4184 64.8438 48.0469 67.4723 48.0469 70.7031C48.0469 73.934 45.4184 76.5625 42.1875 76.5625H18.75C13.3652 76.5625 8.98438 80.9434 8.98438 86.3281C8.98438 91.7129 13.3652 96.0938 18.75 96.0938H38.2812C39.36 96.0938 40.2344 95.2193 40.2344 94.1406C40.2344 93.0619 39.36 92.1875 38.2812 92.1875H18.75C15.5191 92.1875 12.8906 89.559 12.8906 86.3281C12.8906 83.0973 15.5191 80.4688 18.75 80.4688H42.1875C47.5723 80.4688 51.9531 76.0879 51.9531 70.7031C51.9531 65.3184 47.5723 60.9375 42.1875 60.9375H27.0078C26.5459 59.6352 25.6361 58.5436 24.4641 57.8484L39.3816 33.3727C41.7283 29.8453 42.9688 25.7352 42.9688 21.4844C42.9688 9.63789 33.3309 0 21.4844 0C9.63789 0 0 9.63789 0 21.4844C0 25.7352 1.24043 29.8453 3.58711 33.3727L18.5047 57.8484ZM21.4844 64.8438C20.4074 64.8438 19.5312 63.9676 19.5312 62.8906C19.5312 61.8137 20.4074 60.9375 21.4844 60.9375C22.5613 60.9375 23.4375 61.8137 23.4375 62.8906C23.4375 63.9676 22.5613 64.8438 21.4844 64.8438ZM21.4844 3.90625C31.177 3.90625 39.0625 11.7918 39.0625 21.4844C39.0625 24.9742 38.0416 28.3467 36.1104 31.2373C36.0953 31.2598 36.0807 31.2826 36.0666 31.3059L21.4844 55.2314C21.4844 55.2314 6.87344 31.2598 6.8584 31.2373C4.92715 28.3467 3.90625 24.9742 3.90625 21.4844C3.90625 11.7918 11.7918 3.90625 21.4844 3.90625Z" fill="#FF6060"/>
<path d="M21.4844 31.25C26.8691 31.25 31.25 26.8691 31.25 21.4844C31.25 16.0996 26.8691 11.7188 21.4844 11.7188C16.0996 11.7188 11.7188 16.0996 11.7188 21.4844C11.7188 26.8691 16.0996 31.25 21.4844 31.25ZM21.4844 15.625C24.7152 15.625 27.3438 18.2535 27.3438 21.4844C27.3438 24.7152 24.7152 27.3438 21.4844 27.3438C18.2535 27.3438 15.625 24.7152 15.625 21.4844C15.625 18.2535 18.2535 15.625 21.4844 15.625Z" fill="#FF6060"/>
<path d="M78.5156 32.4219C66.6691 32.4219 57.0312 42.0598 57.0312 53.9062C57.0312 58.1639 58.2756 62.2803 60.6297 65.8113L75.4916 89.1238C74.3408 89.8201 73.4484 90.9014 72.9924 92.1875H55.8594C54.7807 92.1875 53.9062 93.0619 53.9062 94.1406C53.9062 95.2193 54.7807 96.0938 55.8594 96.0938H72.9922C73.7984 98.367 75.9693 100 78.5156 100C81.7465 100 84.375 97.3715 84.375 94.1406C84.375 92.0154 83.2377 90.1512 81.5398 89.1238L96.4018 65.8113C98.7557 62.2803 100 58.1639 100 53.9062C100 42.0598 90.3621 32.4219 78.5156 32.4219ZM78.5156 96.0938C77.4387 96.0938 76.5625 95.2176 76.5625 94.1406C76.5625 93.0637 77.4387 92.1875 78.5156 92.1875C79.5926 92.1875 80.4688 93.0637 80.4688 94.1406C80.4688 95.2176 79.5926 96.0938 78.5156 96.0938ZM93.1416 63.6592C93.134 63.6709 78.5156 86.601 78.5156 86.601C78.5156 86.601 63.8973 63.6707 63.8896 63.6592C61.9584 60.7686 60.9375 57.3961 60.9375 53.9062C60.9375 44.2137 68.823 36.3281 78.5156 36.3281C88.2082 36.3281 96.0938 44.2137 96.0938 53.9062C96.0938 57.3961 95.0729 60.7686 93.1416 63.6592Z" fill="#FF6060"/>
<path d="M78.5156 44.1406C73.1309 44.1406 68.75 48.5215 68.75 53.9062C68.75 59.291 73.1309 63.6719 78.5156 63.6719C83.9004 63.6719 88.2812 59.291 88.2812 53.9062C88.2812 48.5215 83.9004 44.1406 78.5156 44.1406ZM78.5156 59.7656C75.2848 59.7656 72.6562 57.1371 72.6562 53.9062C72.6562 50.6754 75.2848 48.0469 78.5156 48.0469C81.7465 48.0469 84.375 50.6754 84.375 53.9062C84.375 57.1371 81.7465 59.7656 78.5156 59.7656Z" fill="#FF6060"/>
<path d="M47.0703 96.0938C48.149 96.0938 49.0234 95.2193 49.0234 94.1406C49.0234 93.0619 48.149 92.1875 47.0703 92.1875C45.9916 92.1875 45.1172 93.0619 45.1172 94.1406C45.1172 95.2193 45.9916 96.0938 47.0703 96.0938Z" fill="#FF6060"/>
</svg>
