<svg width="22" height="22" viewBox="0 0 22 22" fill="none" xmlns="http://www.w3.org/2000/svg">
<path d="M21.0001 15.92V18.92C21.0012 19.1985 20.9441 19.4742 20.8326 19.7294C20.721 19.9845 20.5574 20.2136 20.3521 20.4019C20.1469 20.5901 19.9046 20.7335 19.6408 20.8227C19.377 20.9119 19.0974 20.9451 18.8201 20.92C15.7429 20.5856 12.7871 19.5342 10.1901 17.85C7.77388 16.3147 5.72539 14.2662 4.19006 11.85C2.50003 9.24121 1.4483 6.271 1.12006 3.18001C1.09507 2.90347 1.12793 2.62477 1.21656 2.36163C1.30518 2.09849 1.44763 1.85669 1.63482 1.65163C1.82202 1.44656 2.04986 1.28271 2.30385 1.17053C2.55783 1.05834 2.8324 1.00027 3.11006 1.00001H6.11006C6.59536 0.995229 7.06585 1.16708 7.43382 1.48354C7.80179 1.79999 8.04213 2.23945 8.11005 2.72001C8.23668 3.68007 8.47151 4.62273 8.81006 5.53001C8.9446 5.88793 8.97372 6.27692 8.89396 6.65089C8.81421 7.02485 8.62892 7.36812 8.36005 7.64001L7.09006 8.91001C8.51361 11.4136 10.5865 13.4865 13.0901 14.91L14.3601 13.64C14.6319 13.3711 14.9752 13.1859 15.3492 13.1061C15.7231 13.0263 16.1121 13.0555 16.4701 13.19C17.3773 13.5286 18.32 13.7634 19.2801 13.89C19.7658 13.9585 20.2095 14.2032 20.5266 14.5775C20.8437 14.9518 21.0122 15.4296 21.0001 15.92Z" stroke="black" stroke-linecap="round" stroke-linejoin="round"/>
</svg>
